<svg width="24" height="24" viewBox="0 0 24 24" fill="none" xmlns="http://www.w3.org/2000/svg">
<rect x="4.75" y="3.0658" width="14.5" height="17.8684" rx="3.25" stroke="#747474" stroke-width="1.5"/>
<mask id="path-2-inside-1_808_15904" fill="white">
<path d="M14.1055 4.28071C14.1055 3.19552 14.9852 2.3158 16.0704 2.3158V2.3158C18.2408 2.3158 20.0002 4.07524 20.0002 6.24562V8.05264C20.0002 8.60492 19.5525 9.05264 19.0002 9.05264H16.1055C15.0009 9.05264 14.1055 8.15721 14.1055 7.05264V4.28071Z"/>
</mask>
<path d="M14.1055 4.28071C14.1055 3.19552 14.9852 2.3158 16.0704 2.3158V2.3158C18.2408 2.3158 20.0002 4.07524 20.0002 6.24562V8.05264C20.0002 8.60492 19.5525 9.05264 19.0002 9.05264H16.1055C15.0009 9.05264 14.1055 8.15721 14.1055 7.05264V4.28071Z" stroke="#747474" stroke-width="3" mask="url(#path-2-inside-1_808_15904)"/>
<path d="M6.88898 14.027C6.6678 13.9198 6.52734 13.6956 6.52734 13.4497V13.4497C6.52734 13.2039 6.6678 12.9797 6.88898 12.8724L10.5909 11.0773C10.9155 10.9198 11.2929 11.1563 11.2929 11.517V11.517C11.2929 11.7085 11.1811 11.8823 11.007 11.9617L7.80247 13.4234C7.7937 13.4274 7.78477 13.4181 7.78908 13.4095V13.4095C7.79391 13.3999 7.80844 13.4033 7.80844 13.4141V13.4852C7.80844 13.4955 7.7946 13.4989 7.78976 13.4898V13.4898C7.78534 13.4814 7.79402 13.4722 7.80264 13.4761L11.0057 14.9339C11.1806 15.0135 11.2929 15.1879 11.2929 15.3801V15.3801C11.2929 15.7419 10.9143 15.9791 10.5887 15.8212L6.88898 14.027Z" fill="#747474"/>
<path d="M15.0016 16.2638C15.2228 16.1566 15.3633 15.9324 15.3633 15.6866V15.6866C15.3633 15.4407 15.2228 15.2165 15.0016 15.1093L11.2998 13.3141C10.9752 13.1567 10.5977 13.3931 10.5977 13.7539V13.7539C10.5977 13.9453 10.7095 14.1191 10.8837 14.1986L14.0882 15.6602C14.0969 15.6642 14.1059 15.6549 14.1015 15.6463V15.6463C14.0967 15.6367 14.0822 15.6401 14.0822 15.6509V15.722C14.0822 15.7323 14.096 15.7358 14.1009 15.7266V15.7266C14.1053 15.7183 14.0966 15.709 14.088 15.713L10.8849 17.1707C10.71 17.2503 10.5977 17.4247 10.5977 17.6169V17.6169C10.5977 17.9787 10.9763 18.2159 11.3019 18.058L15.0016 16.2638Z" fill="#747474"/>
</svg>
