<svg width="24" height="24" viewBox="0 0 24 24" fill="#000" xmlns="http://www.w3.org/2000/svg">
<path d="M14.5558 15.3333C20.0467 15.3108 22 12.4067 22 9.91667C21.9995 9.25065 21.771 8.60487 21.3526 8.0867C20.9341 7.56852 20.351 7.20915 19.7 7.06834C19.9408 6.39083 20.1357 5.69787 20.2833 4.99417C20.3573 4.63392 20.3499 4.26167 20.2615 3.90468C20.1731 3.54768 20.006 3.21495 19.7725 2.93084C19.536 2.63962 19.2375 2.40491 18.8986 2.24386C18.5598 2.08282 18.1893 1.9995 17.8142 2H6.18583C5.81055 1.99938 5.43987 2.08263 5.1009 2.24368C4.76193 2.40473 4.46324 2.63951 4.22667 2.93084C3.99313 3.21495 3.82606 3.54768 3.73768 3.90468C3.64929 4.26167 3.64183 4.63392 3.71583 4.99417C3.86311 5.69796 4.058 6.39095 4.29917 7.06834C3.64835 7.20932 3.06538 7.56876 2.64712 8.08692C2.22886 8.60508 2.00051 9.25076 2 9.91667C2 12.4067 3.95333 15.3108 9.44417 15.3333C9.47534 15.5087 9.494 15.6861 9.5 15.8642V18.6667C9.51432 18.8893 9.48102 19.1123 9.40233 19.321C9.32364 19.5297 9.20135 19.7193 9.04364 19.877C8.88592 20.0347 8.6964 20.157 8.4877 20.2357C8.279 20.3144 8.05592 20.3477 7.83333 20.3333H6.16667V22H17.8333V20.3333H16.1733C15.9503 20.3484 15.7266 20.3156 15.5172 20.2373C15.3078 20.1589 15.1176 20.0368 14.9592 19.879C14.8008 19.7213 14.6779 19.5315 14.5987 19.3224C14.5195 19.1133 14.4859 18.8898 14.5 18.6667V15.8642C14.506 15.6861 14.5247 15.5087 14.5558 15.3333ZM19.0833 8.66667C19.4149 8.66667 19.7328 8.79836 19.9672 9.03279C20.2016 9.26721 20.3333 9.58515 20.3333 9.91667C20.3333 11.6233 18.9742 13.4375 15.23 13.6458C15.3774 13.4523 15.5475 13.2771 15.7367 13.1242C17.1573 11.9051 18.285 10.3815 19.0358 8.66667H19.0833ZM3.66667 9.91667C3.66667 9.58515 3.79836 9.26721 4.03278 9.03279C4.2672 8.79836 4.58515 8.66667 4.91667 8.66667H4.96417C5.71441 10.3816 6.84183 11.9053 8.2625 13.1242C8.45195 13.2771 8.62233 13.4523 8.77 13.6458C5.02583 13.4375 3.66667 11.6233 3.66667 9.91667ZM12.8333 15.8642V18.6667C12.8239 19.2478 12.9637 19.8216 13.2392 20.3333H10.7608C11.0363 19.8216 11.1761 19.2478 11.1667 18.6667V15.8642C11.1808 15.0935 11.0205 14.3296 10.6979 13.6296C10.3752 12.9295 9.89849 12.3115 9.30333 11.8217C7.25 10.18 5.83333 7.04167 5.34833 4.65834C5.32342 4.54067 5.32548 4.41889 5.35434 4.30214C5.38321 4.18538 5.43813 4.07667 5.515 3.98417C5.59589 3.88438 5.69818 3.80404 5.81429 3.74908C5.9304 3.69413 6.05737 3.66596 6.18583 3.66667H17.8142C17.9419 3.66659 18.0681 3.69505 18.1834 3.74998C18.2988 3.80492 18.4004 3.88493 18.4808 3.98417C18.5575 4.0768 18.6123 4.18551 18.6411 4.30223C18.67 4.41894 18.6722 4.54066 18.6475 4.65834C18.1592 7.04167 16.7458 10.18 14.6917 11.825C14.098 12.3151 13.6225 12.9328 13.3008 13.6321C12.979 14.3315 12.8192 15.0945 12.8333 15.8642V15.8642Z" fill="#000"/>
</svg>
