<svg width="24" height="24" viewBox="0 0 24 24" fill="#000" xmlns="http://www.w3.org/2000/svg">
<path d="M19.4219 3.5625H17.625V2.625C17.625 2.27984 17.3452 2 17 2C16.6548 2 16.375 2.27984 16.375 2.625V3.5625H7.625V2.625C7.625 2.27984 7.3452 2 7 2C6.6548 2 6.375 2.27984 6.375 2.625V3.5625H4.57812C3.15652 3.5625 2 4.71902 2 6.14062V19.4219C2 20.8435 3.15652 22 4.57812 22H19.4219C20.8435 22 22 20.8435 22 19.4219V6.14062C22 4.71902 20.8435 3.5625 19.4219 3.5625ZM4.57812 4.8125H6.375V5.4375C6.375 5.78266 6.6548 6.0625 7 6.0625C7.3452 6.0625 7.625 5.78266 7.625 5.4375V4.8125H16.375V5.4375C16.375 5.78266 16.6548 6.0625 17 6.0625C17.3452 6.0625 17.625 5.78266 17.625 5.4375V4.8125H19.4219C20.1542 4.8125 20.75 5.40828 20.75 6.14062V7.625H3.25V6.14062C3.25 5.40828 3.84578 4.8125 4.57812 4.8125ZM19.4219 20.75H4.57812C3.84578 20.75 3.25 20.1542 3.25 19.4219V8.875H20.75V19.4219C20.75 20.1542 20.1542 20.75 19.4219 20.75Z" fill="#000"/>
</svg>
