<svg width="24" height="24" viewBox="0 0 24 24" fill="#000000" xmlns="http://www.w3.org/2000/svg">
<path d="M17.0064 9.07405C17.0064 9.62584 16.7872 10.155 16.397 10.5452C16.0069 10.9354 15.4777 11.1546 14.9259 11.1546C14.3741 11.1546 13.8449 10.9354 13.4547 10.5452C13.0646 10.155 12.8454 9.62584 12.8454 9.07405C12.8454 8.52226 13.0646 7.99306 13.4547 7.60289C13.8449 7.21271 14.3741 6.99351 14.9259 6.99351C15.4777 6.99351 16.0069 7.21271 16.397 7.60289C16.7872 7.99306 17.0064 8.52226 17.0064 9.07405V9.07405ZM17.0014 14.788C16.9557 16.1103 16.6256 17.4072 16.0336 18.5904C15.4881 19.622 14.669 20.4834 13.6662 21.0802C12.6634 21.6769 11.5156 21.986 10.3487 21.9734H9.51652V17.3962C9.5128 16.6248 9.20473 15.8861 8.65929 15.3407C8.11385 14.7952 7.37515 14.4872 6.60379 14.4834H2.02663V13.6512C2.01403 12.4844 2.32306 11.3366 2.91981 10.3338C3.51656 9.33094 4.37798 8.51186 5.40957 7.96637C6.59277 7.37433 7.88966 7.04422 9.21193 6.99851C10.4243 5.43248 11.9813 4.16692 13.762 3.30009C15.5428 2.43325 17.4993 1.98845 19.4797 2.00023V2.00023C19.8093 1.99815 20.136 2.06113 20.4412 2.18558C20.7463 2.31002 21.0239 2.49347 21.258 2.72542C21.4921 2.95736 21.6781 3.23323 21.8054 3.53722C21.9327 3.8412 21.9987 4.16732 21.9997 4.49687C22.0138 6.48105 21.5701 8.44175 20.7033 10.2266C19.8364 12.0114 18.5696 13.5724 17.0014 14.788V14.788ZM3.76096 12.819H5.64342C6.26145 11.4425 6.98746 10.1171 7.81465 8.85518C7.24011 8.98885 6.68338 9.18997 6.15606 9.45437C5.52186 9.78926 4.9749 10.268 4.55899 10.8523C4.14308 11.4366 3.86977 12.1101 3.76096 12.819V12.819ZM15.1448 16.1853C13.8828 17.0125 12.5574 17.7385 11.1809 18.3566V20.239C11.8898 20.1302 12.5634 19.8569 13.1477 19.441C13.7319 19.0251 14.2107 18.4781 14.5456 17.8439C14.81 17.3166 15.0111 16.7599 15.1448 16.1853V16.1853ZM20.3353 4.47357C20.3292 4.25692 20.2388 4.05118 20.0834 3.90011C19.928 3.74905 19.7198 3.66457 19.503 3.66466C15.2088 3.78699 12.3044 5.43228 9.50154 9.34202C8.71939 10.4682 8.03158 11.657 7.44515 12.8964C8.35386 13.0657 9.19003 13.5061 9.84363 14.1597C10.4972 14.8133 10.9376 15.6494 11.1069 16.5582C12.3463 15.9717 13.5351 15.2839 14.6612 14.5018C18.5676 11.6955 20.2129 8.7911 20.3353 4.47357ZM7.12142 16.8794C7.58643 17.3492 7.84728 17.9835 7.84728 18.6445C7.84728 19.3055 7.58643 19.9398 7.12142 20.4096C6.36661 21.1636 4.10716 21.6288 3.17009 21.7944L2 22L2.20556 20.8299C2.372 19.8928 2.83637 17.6334 3.59035 16.8786C4.06617 16.4247 4.69851 16.1716 5.35605 16.1717C6.0136 16.1719 6.64582 16.4253 7.12142 16.8794V16.8794ZM6.18768 18.6445C6.18798 18.5352 6.16658 18.4269 6.12472 18.3259C6.08287 18.2249 6.02139 18.1332 5.94384 18.0561C5.78778 17.9001 5.57614 17.8125 5.35547 17.8125C5.1348 17.8125 4.92316 17.9001 4.7671 18.0561C4.44981 18.6289 4.22697 19.2491 4.10716 19.8928C4.75113 19.7725 5.37155 19.5494 5.94468 19.2321C6.02197 19.155 6.08324 19.0634 6.12495 18.9626C6.16665 18.8617 6.18798 18.7536 6.18768 18.6445V18.6445Z" fill="#000000"/>
</svg>
