<svg width="24" height="23" viewBox="0 0 24 23" fill="none" xmlns="http://www.w3.org/2000/svg">
<path d="M21.8598 9.03689C21.6893 8.50438 21.3487 8.03984 20.8883 7.71198C20.4279 7.38412 19.8723 7.21033 19.3035 7.21633H15.662L14.5559 3.83366C14.382 3.30119 14.0402 2.83669 13.5799 2.50714C13.1196 2.17758 12.5645 2 11.9946 2C11.4248 2 10.8697 2.17758 10.4094 2.50714C9.94905 2.83669 9.60728 3.30119 9.43335 3.83366L8.32732 7.21633H4.68582C4.11884 7.21712 3.56661 7.39371 3.10802 7.72087C2.64943 8.04803 2.30793 8.50903 2.13229 9.03802C1.95666 9.56701 1.95589 10.1369 2.13007 10.6664C2.30426 11.1958 2.6445 11.6577 3.1022 11.9861L6.06607 14.1125L4.9392 17.5369C4.7571 18.068 4.75479 18.6427 4.93263 19.1752C5.11046 19.7077 5.45892 20.1695 5.92605 20.4919C6.38517 20.8245 6.94156 21.0028 7.5123 21C8.08303 20.9972 8.63757 20.8135 9.09329 20.4763L11.9946 18.381L14.8968 20.4739C15.3551 20.8046 15.9085 20.9843 16.4774 20.987C17.0464 20.9898 17.6015 20.8154 18.0631 20.489C18.5246 20.1626 18.8688 19.701 19.0462 19.1706C19.2235 18.6401 19.2249 18.0682 19.0501 17.5369L17.9232 14.1125L20.8904 11.9861C21.3534 11.6619 21.6976 11.2 21.8722 10.6688C22.0468 10.1376 22.0424 9.56544 21.8598 9.03689ZM19.9069 10.6652L16.453 13.1426C16.3111 13.2441 16.2055 13.387 16.1513 13.5509C16.0972 13.7148 16.0971 13.8914 16.1512 14.0553L17.464 18.0383C17.5304 18.2403 17.5298 18.4578 17.4624 18.6594C17.3949 18.8611 17.264 19.0366 17.0884 19.1607C16.9129 19.2847 16.7018 19.351 16.4855 19.3499C16.2691 19.3488 16.0587 19.2805 15.8845 19.1546L12.4881 16.7011C12.345 16.598 12.1721 16.5423 11.9946 16.5423C11.8171 16.5423 11.6443 16.598 11.5012 16.7011L8.10478 19.1546C7.93065 19.2822 7.71965 19.3519 7.50239 19.3539C7.28512 19.3558 7.07287 19.2898 6.89641 19.1654C6.71996 19.041 6.58846 18.8647 6.52099 18.662C6.45351 18.4594 6.45357 18.2409 6.52116 18.0383L7.83806 14.0553C7.89217 13.8914 7.89213 13.7148 7.83795 13.5509C7.78376 13.387 7.67821 13.2441 7.53634 13.1426L4.08238 10.6652C3.90844 10.5403 3.77919 10.3646 3.7131 10.1632C3.64701 9.96184 3.64746 9.74514 3.71438 9.54404C3.78131 9.34295 3.91129 9.16775 4.08575 9.04347C4.26021 8.9192 4.47024 8.8522 4.68582 8.85205H8.93659C9.11306 8.85205 9.28496 8.79708 9.42756 8.69508C9.57015 8.59308 9.67607 8.4493 9.73007 8.28446L11.022 4.33337C11.0883 4.13118 11.2183 3.95485 11.3932 3.82977C11.5681 3.70468 11.779 3.63729 11.9955 3.63729C12.2119 3.63729 12.4228 3.70468 12.5978 3.82977C12.7727 3.95485 12.9027 4.13118 12.969 4.33337L14.2609 8.28446C14.3149 8.4493 14.4208 8.59308 14.5634 8.69508C14.706 8.79708 14.8779 8.85205 15.0544 8.85205H19.3051C19.5207 8.8522 19.7308 8.9192 19.9052 9.04347C20.0797 9.16775 20.2097 9.34295 20.2766 9.54404C20.3435 9.74514 20.344 9.96184 20.2779 10.1632C20.2118 10.3646 20.0825 10.5403 19.9086 10.6652H19.9069Z" fill="#747474"/>
</svg>
