<svg width="24" height="24" viewBox="0 0 24 24" fill="none" xmlns="http://www.w3.org/2000/svg">
<path d="M0.5 12C0.5 5.65214 5.65214 0.5 12 0.5C18.3479 0.5 23.5 5.65214 23.5 12C23.5 18.3479 18.3479 23.5 12 23.5C5.65214 23.5 0.5 18.3479 0.5 12ZM4.08645 13.1936L8.39445 17.5016C9.05433 18.1614 10.1407 18.1689 10.7957 17.4994L19.9016 8.39355C20.5648 7.73029 20.5648 6.65771 19.9016 5.99445C19.2383 5.33118 18.1657 5.33118 17.5024 5.99445L9.59939 13.8975L6.48555 10.7944L6.132 11.148L6.48494 10.7938L6.48518 10.7941C5.82189 10.1312 4.74959 10.1313 4.08645 10.7944C3.42318 11.4577 3.42318 12.5303 4.08645 13.1936Z" fill="white" stroke="#A6A5A5"/>
</svg>
